<svg xmlns="http://www.w3.org/2000/svg" viewBox="0 0 64 64" role="img" aria-label="ZOHAR AI"><g transform="translate(1.6 2.2)" fill="#6F4317" opacity=".28"><path d="M8 13h32l-5 9H24l18 0-5 9H20l-9 11h29l-5 9H3l5-9 18-20H8Z"/><path fill-rule="evenodd" d="M40 10h11l12 41H52l-2.8-10H36.8L32 51H21L40 10Zm.8 22h6L44 20.5 40.8 32Z"/></g><g fill="#8A571C" stroke="#5B3510" stroke-width=".45" stroke-linejoin="bevel"><path d="M8 13h32l-5 9H24l18 0-5 9H20l-9 11h29l-5 9H3l5-9 18-20H8Z"/><path fill-rule="evenodd" d="M40 10h11l12 41H52l-2.8-10H36.8L32 51H21L40 10Zm.8 22h6L44 20.5 40.8 32Z"/></g></svg>
